<?xml version="1.0" encoding="utf-8"?>
<!-- Generator: Adobe Illustrator 13.0.0, SVG Export Plug-In . SVG Version: 6.00 Build 14948)  -->
<!DOCTYPE svg PUBLIC "-//W3C//DTD SVG 1.1//EN" "http://www.w3.org/Graphics/SVG/1.1/DTD/svg11.dtd">
<svg version="1.1" id="Layer_1" xmlns="http://www.w3.org/2000/svg" xmlns:xlink="http://www.w3.org/1999/xlink" x="0px" y="0px"
	 width="423.307px" height="52.008px" viewBox="0 0 423.307 52.008" enable-background="new 0 0 423.307 52.008"
	 xml:space="preserve">
<text transform="matrix(1 0 0 1 0 40.0078)" fill="#FAC6B5" font-family="'Bauhaus93'" font-size="48">RESTFUL CRAWL</text>
<rect x="323.4" y="30.602" fill="#FAC6B5" width="21.122" height="9.196"/>
<polyline fill="#FAC6B5" points="344.564,30.768 346.375,29.148 345,28.023 352.75,11.524 361.625,9.899 361.5,11.024 390.5,9.774 
	394.875,17.274 385.125,29.148 393.25,39.648 391.625,41.398 378.875,29.023 381.125,23.399 362,20.774 365.125,32.148 "/>
<polyline fill="#FAC6B5" points="395.125,17.774 391.375,22.524 396.625,27.773 411,30.773 412.5,27.273 398.75,22.524 "/>
<circle fill="#FAC6B5" cx="401.062" cy="9.462" r="8.688"/>
<polygon fill="#FAC6B5" points="344.564,39.964 354,39.648 355.75,29.773 345.125,30.523 344,32.148 344.125,38.523 "/>
<path d="M349.75,36.273l2.625-7.625l-0.125,5.875l-2.625,1.25l-2.125-1.125l0.25-1.125c0,0,1.375-2.125,0.25-0.875
	s-5.5,2.125-5.5,2.125l0.125,2.125l3.625,2.875l3.5-0.25h2.125L354,39.648l0.5-2.625l0.75-4.875l0.125-4.875"/>
<path stroke="#F15A29" d="M353.5,29.398"/>
<g>
	<g>
		<path fill="#FAC6B5" d="M349.75,31.773c0.25-0.75,0.5-1.375,1-1.875c-0.25,1.125-0.875,2.375-1.375,3.5
			c-0.25-0.75-0.25-1.5,0-2.25c-0.75,0.875-1.5,1.875-2.375,2.75c0.125-1.125,0.625-2.25,0.875-3.375
			c-0.375,0.375-0.625,0.75-0.875,1.25c0.5-0.5,1.125-0.875,1.625-1.125c0.5,1.5-1.5,2.125-2.625,2.875
			c0.25-0.5,0.125-1.125,0.375-1.625c-0.875-0.25-1.125,1-1.625,1.75c0.375-0.75,1.375-2,0.75-2.375c3.125,0.375,5-2.375,7.75-3.25
			c0.375,0.875,0.25,1.875,0.25,2.875c0.875-1,0.625-2.125,0.875-3.25c0.5,3-1.5,5.375-1.75,8.25c0-1.625,0.125-3.25,0.25-4.875
			c1.25,1.125,1.875,4.5,0.75,6.125c-1.875,2.875-5.5-1.375-3.625-3.375c0.25,1.125,0.125,2.25-0.5,3.125
			c-0.625-0.25-0.875-1-0.875-1.75c-0.375,0.625-0.875,1.375-1.625,1.625c-0.5-0.75-0.375-1.625,0.125-2.375
			c-0.25,0.625-0.875,1-1.375,1.25c0-0.5-0.125-1,0-1.5c-1.125,0.375-2.375,1.875-1,2.75"/>
		<path fill="#FAC6B5" d="M350.71,31.632c0.231-0.649,0.485-1.22,0.929-1.752c-0.613,0.054-1.229,0.106-1.849,0.162
			c-0.329,1.222-0.856,2.351-1.375,3.5c0.642-0.134,1.284-0.269,1.926-0.401c-0.186-0.742-0.188-1.39-0.006-2.134
			c0.176-0.7-1.622-0.106-1.849,0.162c-0.78,0.929-1.535,1.873-2.375,2.75c0.613-0.054,1.229-0.106,1.849-0.162
			c0.196-1.151,0.582-2.245,0.875-3.375c0.184-0.707-1.623-0.091-1.849,0.162c-0.393,0.438-0.667,0.864-0.946,1.373
			c-0.295,0.535,1.509,0.147,1.72-0.04c0.449-0.4,0.915-0.727,1.446-1.01c-0.516,0.014-1.031,0.027-1.547,0.041
			c0.251,1.359-1.302,1.82-2.24,2.398c0.514,0.022,1.027,0.049,1.541,0.072c0.156-0.543,0.22-1.081,0.375-1.625
			c0.09-0.312-0.381-0.332-0.565-0.337c-1.729-0.041-2.211,1.028-2.979,2.372c0.64-0.098,1.28-0.188,1.92-0.285
			c0.41-0.74,1.364-1.779,0.692-2.589c-0.503,0.272-1.009,0.55-1.512,0.825c3.594,0.229,5.576-2.262,8.721-3.398
			c-0.442-0.021-0.888-0.041-1.327-0.062c0.303,0.961,0.267,1.879,0.25,2.875c-0.01,0.572,1.673-0.018,1.854-0.277
			c0.736-1.066,0.744-2.123,0.946-3.373c-0.642,0.137-1.284,0.27-1.926,0.4c0.332,2.895-1.393,5.334-1.744,8.135
			c0.642-0.135,1.284-0.27,1.926-0.398c0.02-1.593,0.123-3.177,0.244-4.762c-0.621,0.167-1.241,0.333-1.862,0.499
			c1.249,1.312,1.517,3.487,1.055,5.179c-0.485,1.771-1.848,0.354-2.271-0.418c-0.428-0.773-0.41-1.687,0.135-2.387
			c-0.617,0.096-1.233,0.188-1.854,0.277c0.176,1.062,0.136,1.943-0.423,2.887c0.597-0.125,1.191-0.251,1.791-0.376
			c-0.615-0.421-0.748-0.935-0.812-1.649c-0.051-0.582-1.672-0.016-1.854,0.275c-0.361,0.577-0.653,1.062-1.317,1.391
			c0.516-0.017,1.031-0.027,1.547-0.041c-0.377-0.841-0.298-1.451,0.119-2.262c0.24-0.464-1.589-0.275-1.849,0.162
			c-0.204,0.479-0.562,0.812-1.067,1.016c0.516-0.017,1.031-0.027,1.547-0.041c-0.039-0.461-0.041-0.925-0.006-1.387
			c0.062-0.562-1.067-0.292-1.321-0.178c-1.37,0.613-3.103,2.038-1.541,3.427c0.454,0.404,2.238-0.327,1.808-0.713
			c-0.825-0.731-0.493-1.646,0.459-2.073c-0.44-0.06-0.881-0.117-1.321-0.178c-0.062,0.557-0.037,1.059-0.006,1.615
			c0.026,0.514,1.358,0.062,1.547-0.041c0.709-0.389,1.266-0.779,1.683-1.486c-0.613,0.057-1.229,0.105-1.849,0.162
			c-0.481,0.936-0.566,1.521-0.131,2.49c0.224,0.496,1.227,0.113,1.547-0.041c0.88-0.43,1.415-1.034,1.933-1.861
			c-0.616,0.096-1.233,0.188-1.854,0.277c0.073,0.84,0.228,1.361,0.938,1.849c0.428,0.291,1.521,0.08,1.791-0.376
			c0.651-1.1,0.785-2.109,0.577-3.361c-0.102-0.611-1.646,0.01-1.854,0.275c-1.793,2.309,0.864,5.374,3.469,4.68
			c3.326-0.894,3.213-5.687,1.197-7.806c-0.321-0.339-1.823-0.021-1.862,0.499c-0.127,1.663-0.238,3.32-0.256,4.99
			c-0.005,0.488,1.856,0.123,1.926-0.4c0.366-2.886,2.099-5.38,1.756-8.363c-0.062-0.55-1.848-0.086-1.926,0.398
			c-0.182,1.122-0.127,2.146-0.804,3.127c0.616-0.093,1.233-0.188,1.854-0.275c0.02-0.998,0.054-1.916-0.25-2.875
			c-0.139-0.439-1.062-0.156-1.327-0.062c-2.213,0.803-4.353,3.259-6.779,3.102c-0.273-0.018-1.979,0.266-1.512,0.825
			c0.443,0.534-0.553,1.699-0.808,2.161c-0.238,0.432,1.616,0.246,1.92-0.285c0.048-0.083,0.784-1.115,0.271-1.128
			c-0.188-0.112-0.378-0.226-0.564-0.337c-0.156,0.543-0.22,1.081-0.375,1.625c-0.179,0.621,1.349,0.193,1.541,0.075
			c1.284-0.792,3.351-1.503,3.01-3.353c-0.095-0.517-1.317-0.08-1.547,0.041c-0.66,0.354-1.243,0.739-1.804,1.238
			c0.572-0.014,1.146-0.023,1.72-0.04c0.205-0.423,0.474-0.799,0.804-1.127c-0.614,0.056-1.229,0.104-1.849,0.162
			c-0.293,1.13-0.679,2.222-0.875,3.375c-0.128,0.748,1.614,0.082,1.849-0.162c0.842-0.877,1.598-1.819,2.375-2.75
			c-0.614,0.056-1.229,0.104-1.849,0.162c-0.215,0.856-0.221,1.507-0.006,2.364c0.158,0.637,1.746-0.004,1.926-0.399
			c0.521-1.147,1.046-2.276,1.375-3.5c0.188-0.688-1.622-0.106-1.849,0.162c-0.521,0.622-0.805,1.235-1.071,1.998
			C348.599,32.454,350.506,32.207,350.71,31.632L350.71,31.632z"/>
	</g>
</g>
<g>
	<g>
		<path fill="none" d="M351.125,23.899"/>
		<path fill="#FAC6B5" d="M350.735,24.396c0.65,0,2.08-0.992,0.776-0.992C350.861,23.403,349.435,24.396,350.735,24.396
			L350.735,24.396z"/>
	</g>
</g>
<g>
	<g>
		<path fill="#FAC6B5" d="M349.5,31.773"/>
		<path fill="#FAC6B5" d="M349.146,32.402c0.825,0,2.015-1.258,0.704-1.258C349.025,31.146,347.839,32.402,349.146,32.402
			L349.146,32.402z"/>
	</g>
</g>
<g>
	<g>
		<path fill="none" d="M343,35.398c-0.25,2.25,4.5,2.5,6.125,3.5c-1.375-0.75-3.375-0.375-4.5-1.5c0.5,0.375,4.875,3.5,5,0.625
			c0-1-4.25-1.875-5.125-2.5c1.5-1.875,3.125-2.25,4.25-4.75c0.25,1.625,0.25,3.625,0.125,5.25c-0.375-2-2-5.625-4.25-3.125"/>
		<path fill="#FAC6B5" d="M342.034,35.658c-0.065,2.595,4.559,2.685,6.186,3.59c0.563-0.253,1.126-0.507,1.689-0.76
			c-1.413-0.648-3.149-0.418-4.379-1.438c-0.604,0.232-1.207,0.466-1.812,0.697c1.16,0.856,2.456,1.627,3.885,1.901
			c1.045,0.201,3.278-0.41,2.986-1.885c-0.257-1.302-3.206-1.812-4.211-2.164c-0.209-0.074-0.933-0.188-0.673-0.492
			c0.528-0.621,1.195-1.118,1.812-1.646c0.948-0.811,1.644-1.729,2.189-2.84c-0.642,0.136-1.282,0.271-1.924,0.408
			c0.234,1.744,0.243,3.494,0.125,5.25c0.644-0.174,1.288-0.346,1.932-0.519c-0.271-1.307-0.903-3.454-2.326-3.983
			c-1.393-0.519-2.787,0.177-3.771,1.154c-0.481,0.479,1.4,0.291,1.77-0.072c1.104-1.096,2.267,2.774,2.399,3.42
			c0.116,0.553,1.896,0.025,1.932-0.518c0.118-1.757,0.112-3.507-0.125-5.25c-0.08-0.59-1.753,0.062-1.924,0.407
			c-0.975,1.979-2.789,3.004-4.177,4.638c-0.065,0.077-0.146,0.232-0.021,0.312c1.505,0.93,3.484,0.967,4.891,2.079
			c0.451,0.359-0.241,0.753,0.347,0.807c-0.552-0.051-1.153-0.389-1.632-0.643c-0.581-0.309-1.142-0.678-1.667-1.065
			c-0.449-0.331-2.219,0.358-1.812,0.697c1.336,1.106,3.105,0.864,4.621,1.562c0.438,0.2,2.083-0.539,1.689-0.761
			c-1.563-0.869-6.123-1.058-6.064-3.409C343.977,34.723,342.05,35.02,342.034,35.658L342.034,35.658z"/>
	</g>
</g>
<g>
	<g>
		<path fill="none" d="M350.875,33.148c0,1.75-0.125,3.75,0,5.625c0.572-2.004,2.356-5.866,1.821-7.969
			c-0.822,0.26-1.368,1.562-1.442,2.385c0.197-0.381,0.563-0.897,0.996-1.041"/>
		<path fill="#FAC6B5" d="M349.909,33.408c-0.012,1.876-0.104,3.75,0,5.625c0.021,0.456,1.801-0.016,1.921-0.419
			c0.758-2.523,2.362-5.359,1.832-8.067c-0.088-0.449-1.334,0.001-1.531,0.098c-1.095,0.531-1.653,1.521-1.832,2.707
			c-0.094,0.614,1.699,0.041,1.91-0.318c0.13-0.309,0.332-0.549,0.606-0.723c1.131-0.615-0.646-0.588-1.134-0.319
			c-0.625,0.34-1.021,0.743-1.386,1.36c0.637-0.104,1.273-0.215,1.91-0.318c0.106-0.705,0.351-1.725,1.053-2.062
			c-0.51,0.031-1.021,0.064-1.528,0.1c0.514,2.625-1.074,5.416-1.812,7.869c0.64-0.142,1.28-0.278,1.921-0.418
			c-0.101-1.877-0.012-3.75,0-5.625C351.844,32.516,349.913,32.809,349.909,33.408L349.909,33.408z"/>
	</g>
</g>
<g>
	<g>
		<path fill="none" d="M354.5,30.148c-0.25,1.875-0.75,3.75-2.25,4.875c-2.125,1.75-4.5,1.125-6.875,1.625
			c0.625,1.375,2.625,1,3.75,1c-1.875,0.875-3.625-0.125-3.75-2.375c0-0.5,0.5-1.25,0.375-1.75s-0.875-1.25-1.125-1.75
			c-1.625,2.375,4.875,5,0.625,7.625c-0.25-0.5-0.375-1.125-0.25-1.625c1.625-0.25,8.875,1.25,7.25-1.875
			c1.25,0.875,1.5,3.75-0.75,2.75c0.75-0.125,1.125,0.125,1.625,0.375c-1.5,0.75-2.125-1.25-2.125-2.375"/>
		<path fill="#FAC6B5" d="M353.543,30.302c-0.258,1.733-0.648,3.453-2.045,4.646c-1.559,1.329-4.062,0.946-5.961,1.278
			c-0.141,0.022-1.342,0.34-1.128,0.682c0.941,1.511,2.753,1.228,4.312,1.188c0.02-0.244,0.034-0.488,0.054-0.729
			c-1.907,0.734-2.651-1.82-2.207-3.118c0.403-1.185-0.394-1.783-0.979-2.729c-0.329-0.533-1.681-0.021-1.923,0.41
			c-1.562,2.797,4.498,4.901,0.83,7.396c0.572-0.062,1.146-0.122,1.718-0.185c-0.243-0.474-0.329-0.979-0.259-1.52
			c-0.373,0.191-0.746,0.383-1.119,0.574c1.475-0.158,10.064,1.201,8.378-2.557c-0.624,0.2-1.247,0.402-1.871,0.604
			c0.339,0.291,0.554,0.605,0.73,1.015c0.079,0.218,0.128,0.437,0.146,0.662c-0.124,0.535-0.104,0.644,0.062,0.317
			c-0.396,0.283-0.791,0.568-1.188,0.854c0.454-0.009,0.868,0.104,1.243,0.336c0.146-0.229,0.288-0.462,0.434-0.69
			c-0.408,0.142-0.794-2.066-0.809-2.351c-0.021-0.448-1.964-0.098-1.932,0.519c0.118,2.244,1.385,3.109,3.439,2.4
			c0.262-0.091,0.912-0.451,0.436-0.691c-0.69-0.352-1.235-0.461-2.007-0.414c-0.215,0.013-1.943,0.588-1.188,0.854
			c2.492,0.883,4.824-1.462,2.439-3.505c-0.319-0.272-2.094,0.115-1.871,0.604c0.799,1.779-1.576,1.33-2.708,1.271
			c-1.14-0.059-2.277-0.198-3.414-0.075c-0.242,0.023-1.09,0.229-1.119,0.572c-0.062,0.665-0.004,1.091,0.241,1.73
			c0.198,0.524,1.439,0.006,1.718-0.185c1.324-0.899,2.09-1.964,1.332-3.524c-0.643-1.317-2.644-2.735-1.752-4.326
			c-0.644,0.137-1.282,0.273-1.923,0.41c0.699,1.14,1.317,1.562,0.835,2.979c-0.262,0.752,0.061,1.852,0.587,2.419
			c1.192,1.294,2.887,1.087,4.396,0.503c0.558-0.216,0.898-0.754,0.053-0.73c-1.12,0.029-2.484,0.31-3.188-0.812
			c-0.376,0.229-0.752,0.454-1.128,0.682c2.466-0.431,4.812-0.217,7.073-1.472c2.104-1.171,2.838-3.354,3.171-5.604
			C355.544,29.411,353.621,29.773,353.543,30.302L353.543,30.302z"/>
	</g>
</g>
<g>
	<g>
		<path fill="none" d="M360.25,31.398c1.375,1.5,3.75,3.875,1.25,5c-1,0.375-3.5,0.25-4.375-0.25c0,1.125-0.125,2.375-0.375,3.5
			c1.25-1.75,5.125,0.25,7-1c2.75-2.125,1-4.875,0-7.125"/>
		<path fill="#FAC6B5" d="M359.348,31.758c0.886,0.958,1.899,1.93,2.252,3.221c0.487,1.779-2.906,1.107-3.693,0.74
			c-0.452-0.212-1.733,0.076-1.744,0.689c-0.021,1.148-0.146,2.257-0.37,3.382c-0.147,0.737,1.618,0.106,1.851-0.156
			c0.634-0.719,3.07-0.063,4.012-0.062c0.906,0.002,2.146-0.199,2.859-0.815c2.625-2.262,1.439-4.78,0.205-7.491
			c-0.271-0.597-2.151,0.028-1.932,0.521c1.141,2.506,3.032,7.175-1.754,6.741c-1.786-0.158-3.865-0.346-5.17,1.141
			c0.614-0.052,1.23-0.104,1.851-0.156c0.24-1.197,0.357-2.396,0.38-3.615c-0.581,0.229-1.163,0.459-1.744,0.688
			c1.801,0.84,4.414,0.766,6.149-0.184c2.531-1.379-0.184-4.1-1.344-5.355C360.747,30.602,358.917,31.291,359.348,31.758
			L359.348,31.758z"/>
	</g>
</g>
<g>
	<g>
		<path fill="none" d="M362.25,31.023c0.692,1.246,2.021,3.107,1.222,4.555c-0.934,1.688-4.518,3.855-5.972,1.82"/>
		<path fill="#FAC6B5" d="M361.284,31.283c0.781,1.374,2.119,3.16,1.02,4.701c-0.834,1.168-2.763,2.434-3.901,1.045
			c-0.403-0.49-2.261,0.182-1.802,0.74c1.527,1.854,4.489,0.748,6.087-0.438c0.874-0.649,1.699-1.435,1.971-2.522
			c0.345-1.393-0.797-2.914-1.439-4.043C362.859,30.139,361.007,30.795,361.284,31.283L361.284,31.283z"/>
	</g>
</g>
<g>
	<g>
		<path fill="none" d="M358.25,27.648"/>
		<path fill="#FAC6B5" d="M358.153,28.314c1.069,0,1.508-1.33,0.19-1.33C357.274,26.984,356.839,28.314,358.153,28.314
			L358.153,28.314z"/>
	</g>
</g>
<g>
	<g>
		<path fill="none" d="M363.875,35.898c-0.125,1.75-1.375,2.375-2.875,2.375"/>
		<path fill="#FAC6B5" d="M362.918,36.055c-0.054,0.574-0.203,1.107-0.612,1.531c-0.249,0.26-0.556,0.242-0.898,0.247
			c-0.418,0.006-0.994,0.164-1.287,0.483c-0.312,0.336,0.267,0.399,0.479,0.396c1.9-0.023,4.036-0.842,4.236-2.971
			C364.889,35.146,362.966,35.545,362.918,36.055L362.918,36.055z"/>
	</g>
</g>
<g>
	<g>
		<path fill="none" d="M362.625,33.023"/>
		<path fill="#FAC6B5" d="M362.238,33.529c0.667,0,2.076-1.012,0.771-1.012C362.345,32.52,360.936,33.529,362.238,33.529
			L362.238,33.529z"/>
	</g>
</g>
<g>
	<g>
		<path fill="none" d="M363.875,37.273c-0.625,0.375-1.125,0.875-1.5,1.375"/>
		<path fill="#FAC6B5" d="M363.296,37.062c-0.699,0.437-1.305,0.955-1.809,1.607c-0.272,0.354,0.229,0.458,0.489,0.451
			c0.411-0.012,1.019-0.146,1.283-0.496c0.337-0.438,0.723-0.846,1.191-1.143c0.2-0.125,0.638-0.478,0.201-0.637
			C364.253,36.703,363.647,36.842,363.296,37.062L363.296,37.062z"/>
	</g>
</g>
<g>
	<g>
		<path fill="none" d="M362.375,35.148"/>
		<path fill="#FAC6B5" d="M361.74,35.514c0.369,0,2.188-0.729,1.27-0.729C362.641,34.785,360.822,35.514,361.74,35.514
			L361.74,35.514z"/>
	</g>
</g>
<g>
	<g>
		<path fill="none" d="M361.75,37.273c-0.875,0-1.75,0-2.625,0"/>
		<path fill="#FAC6B5" d="M362.117,36.695c-0.875,0-1.75,0-2.625,0c-0.442,0-1.018,0.139-1.271,0.541
			c-0.244,0.384,0.206,0.615,0.537,0.615c0.875,0,1.75,0,2.625,0c0.442,0,1.018-0.14,1.271-0.539
			C362.898,36.93,362.448,36.695,362.117,36.695L362.117,36.695z"/>
	</g>
</g>
<path fill="#FAC6B5" d="M420.501,25.024l-1.625,1.875l-1.125,1.125l-0.348,0.139l-0.277-0.451v-0.938l0.5-1.875l0.25-0.875
	l0.875-1.125l0.25-0.75l-2.334,3.734c-0.05,0.21-0.1,0.42-0.156,0.629c-0.168,0.622-1.133,0.357-0.965-0.266
	c0.214-0.792,0.331-1.629,0.634-2.394c0.08-0.203,0.188-0.407,0.289-0.611c0.041-0.098,0.08-0.196,0.119-0.294l0.037-2.298
	c0,0-2.25,4.125-2.25,6c0,0.836,0.198,1.496,0.418,1.977c0.049,0.104,0.098,0.2,0.146,0.286c0.228,0.403,0.437,0.612,0.437,0.612
	l1.25,0.125c0,0,1.375,0,2.125-1.5s2.625-3.375,3-4.25S420.501,25.024,420.501,25.024z"/>
<path fill="#FAC6B5" d="M415.972,30.002c0.12-0.21,0.344-0.268,0.558-0.217l0.645-0.97l0.264,0.473l0.659-1.025l-2.647-0.677
	l-4.696,10.869l3.751-5.629C415.007,31.894,415.442,30.921,415.972,30.002z"/>
<line fill="none" stroke="#F15A29" x1="412.443" y1="40.484" x2="412.443" y2="40.484"/>
<path fill="none" d="M344.278,34.598c-0.386,0-0.771-0.009-1.156,0.004c0.906,0.032,1.938-0.605,2.761-0.949
	c-0.863-0.012-1.715,0.326-2.542,0.539"/>
<path fill="none" d="M345.997,35.723c0.011,0,0.021,0,0.031,0"/>
<path fill="#FAC6B5" d="M343.216,34.879c-0.019-0.229,0.045-0.445,0.128-0.654c0.028,0.289-0.162,0.614-0.321,0.846
	c0.144-0.162,0.283-0.328,0.412-0.504"/>
<path fill="#FFFFFF" d="M349.403,35.91c-0.021-0.031-0.042-0.062-0.062-0.094"/>
<line fill="none" x1="355.903" y1="29.41" x2="356.06" y2="30.223"/>
<path fill="none" d="M354.403,26.504c-3.291-0.336-6.421,3.161-5.387,6.463c0.699,2.234,3.421,0.188,4.289-1.066
	c1.053-1.522,0.272-3.937-0.402-5.396"/>
<path fill="none" d="M351.528,21.504c0-0.042,0-0.083,0-0.125"/>
<path fill="none" d="M342.997,33.629c-0.687,0.192-0.791,0.604-0.782,1.192c0.012,0.812,0.879,1.071,1.578,1.155
	c1.178,0.142,2.229-0.823,1.356-1.975c-0.347-0.458-0.901-0.301-1.407-0.378c-0.469-0.072-0.61-0.13-1.12-0.026"/>
<path fill="#FAC6B5" d="M343.31,33.723c-0.542-0.095-0.445,0.719-0.408,1.04c0.055,0.474,0.43,0.693,0.91,0.679
	c0.743-0.023,1.988-1.48,1.259-2.138c-0.334-0.302-1.616-0.298-2.021-0.144c-0.43,0.163-0.701,0.658-1.052,0.938"/>
<path fill="#FAC6B5" d="M342.341,34.441c-0.056-0.036-0.185-0.05-0.281-0.036c-0.068,0.186-0.032,0.428-0.031,0.626
	c0.001,0.204-0.097,0.715-0.002,0.911c0.179,0.372,0.979,0.467,1.323,0.553c0.369,0.092,0.872,0.261,1.192,0.009
	c0.29-0.228,0.502-1.037,0.463-1.387c-0.04-0.367-0.203-0.396-0.531-0.6c-0.455-0.282-0.862-0.679-1.334-0.926
	c-0.721-0.376-1.217,0.031-1.799,0.475"/>
<path fill="#FAC6B5" d="M355.185,26.723c-0.346,0.135-0.313,0.875-0.315,1.17c-0.004,0.833-0.025,1.674,0.001,2.508
	c0.023,0.719,0.232,0.864,0.863,0.3c0.84-0.754,0.929-1.814,0.485-2.79c-0.17-0.374-0.292-1.012-0.653-1.244
	c-0.312-0.2-0.954-0.287-1.318-0.256"/>
<path fill="#FAC6B5" d="M354.028,31.473c0,0.602-0.012,1.205,0,1.807c0.005,0.264-0.015,0.325,0.219,0.445
	c0.316,0.162,0.554,0.071,0.632-0.252c0.089-0.368,0.167-0.729,0.243-1.092c0.073-0.347,0.197-0.65,0.25-1.009
	c0.044-0.296,0.118-0.837-0.303-0.809c-0.137,0.009-0.142,0.088-0.231,0.158c-0.282,0.221-0.669,0.72-0.855,1.032
	c-0.077,0.131-0.151,0.229-0.173,0.375"/>
<path fill="#FAC6B5" d="M345.044,36.801c-0.151,0-0.328-0.029-0.476-0.001c-0.182,0.036-0.34,0.176-0.472,0.313
	c-0.192,0.202-0.462,0.546-0.537,0.823c-0.113,0.417,0.591,0.327,0.777,0.143c0.146-0.146-0.062-0.625-0.246-0.7"/>
<path fill="#FAC6B5" d="M345.825,39.035c-0.019,0.047-0.007,0.11-0.016,0.171c-0.017,0.114-0.097,0.18-0.109,0.284
	c-0.022,0.184,0.136,0.273,0.285,0.295c0.275,0.039,0.59,0.024,0.859-0.016c0.256-0.038,0.604,0.108,0.856-0.004
	c0.074-0.033,0.116-0.077,0.137-0.162c0.038-0.158-0.056-0.224-0.181-0.293c-0.258-0.145-0.556-0.275-0.84-0.353
	c-0.246-0.067-0.981-0.204-1.148,0.108"/>
<path fill="#FAC6B5" d="M349.153,39.113c-0.157-0.025-0.189,0.519-0.468,0.551c0.511,0.247,0.993-0.139,1.511-0.099
	c0.381,0.029,0.744,0.079,1.132,0.079c0.264,0,0.796,0.064,0.62-0.376c-0.095-0.236-0.43-0.385-0.655-0.418
	c-0.596-0.088-1.261-0.197-1.859-0.064c-0.243,0.054-0.464,0.194-0.53,0.452"/>
<path fill="#FAC6B5" d="M353.591,37.832c-0.065,0.236-0.381,0.374-0.53,0.549c-0.151,0.175-0.255,0.345-0.427,0.501
	c-0.205,0.187-0.403,0.408-0.573,0.619c0.147,0.01,0.188,0.083,0.315,0.112c0.126,0.029,0.303,0.007,0.434,0
	c0.22-0.011,0.639,0.059,0.798-0.105c0.149-0.155,0.135-0.387,0.17-0.585c0.037-0.208,0.176-0.355,0.235-0.556
	c0.056-0.188,0.138-0.494,0.094-0.688c-0.085-0.378-0.598,0.275-0.719,0.419"/>
<polyline fill="#FAC6B5" points="354.497,36.91 354,39.648 353.169,39.582 353.966,37.379 354.247,36.77 354.31,36.91 "/>
<polygon fill="#FAC6B5" points="355.794,30.098 355.294,32.051 355.028,33.52 354.528,33.613 354.638,30.863 355.419,30.254 "/>
<path fill="#FAC6B5" d="M418.841,22.316c-0.274,1.741-2.263,2.958-2.303,4.865c0.592,0.096,1.161-1.642,1.318-2.112
	c0.163-0.487,0.344-0.971,0.547-1.435c0.112-0.257,0.255-0.503,0.375-0.756c0.077-0.163,0.24-0.464,0.125-0.375"/>
<path fill="#FAC6B5" d="M421.528,23.754c-0.209,0.876-1.314,1.832-1.951,2.439c-0.448,0.427-0.856,0.797-1.238,1.309
	c-0.298,0.4-0.948,0.914-1.053,1.367c1.081,0.205,1.983-1.405,2.506-2.112c0.376-0.507,0.69-1.028,1.125-1.486
	c0.515-0.542,0.529-0.78,0.736-1.455"/>
<path fill="#FAC6B5" d="M419.153,22.129c-0.111,0.938-0.968,1.828-1.438,2.625c-0.324,0.55-2.084,3.671-0.635,3.365
	c0.021-1.029,0.613-2.123,1.01-3.071c0.326-0.781,1.47-2.095,1.303-2.91c-0.097-0.011-0.196-0.021-0.293,0
	c0.035,0.185-0.104,0.203-0.135,0.303"/>
<path fill="#FAC6B5" d="M417.088,25.238c-0.13,0.177-0.261,0.348-0.389,0.517c-0.061,0.253-0.121,0.506-0.188,0.757
	c-0.072,0.268-0.292,0.363-0.506,0.345c-0.148,0.341-0.238,0.712-0.227,1.147l1.75-3c0.253-0.176,0.44-0.382,0.495-0.654
	c0.005,0.093,0.013,0.187,0.019,0.274c0.136-0.31,0.239-0.739,0.5-1.061c0.201-0.248,0.476-0.322,0.477-0.661
	C417.865,23.26,417.756,24.327,417.088,25.238z"/>
<path fill="#FAC6B5" d="M419.091,22.129c-0.23,0.253-0.684,0.695-0.678,1.053c0.708,0.107,0.827-0.341,0.729-0.98
	c-0.088,0.008-0.074-0.038-0.114-0.073"/>
<path fill="#FAC6B5" d="M413.534,34.377c0.002-0.002,0.003-0.004,0.004-0.006l2.553-4.867l-0.938-0.375l-4.25,8.875l-0.062,0.25
	l0.562,0.188l2.121-4.044C413.529,34.391,413.528,34.384,413.534,34.377z"/>
</svg>
